<svg xmlns="http://www.w3.org/2000/svg" viewBox="0 0 400 400" role="img">
  <rect width="400" height="400" fill="#F6F0E4"/>
  <circle cx="200" cy="215" r="150" fill="#C08B57" opacity="0.14"/>

  <path d="M120 170 L120 300 Q120 344 168 344 L232 344 Q280 344 280 300 L280 170 Z" fill="#FFFDF7"/>
  <path d="M120 170 L120 300 Q120 344 168 344 L232 344 Q280 344 280 300 L280 170 Z" fill="none" stroke="#7A4E2D" stroke-width="5" opacity="0.4"/>
  <path d="M280 200 Q334 200 334 240 Q334 280 280 280" fill="none" stroke="#7A4E2D" stroke-width="12" stroke-linecap="round" opacity="0.4"/>
  <ellipse cx="200" cy="172" rx="80" ry="22" fill="#C08B57"/>
  <ellipse cx="200" cy="168" rx="54" ry="14" fill="#FFF6E9" opacity="0.9"/>
  <path d="M176 96 q16 -22 0 -44 M200 100 q16 -26 0 -50 M224 96 q16 -22 0 -44"
        stroke="#7A4E2D" stroke-width="6" fill="none" stroke-linecap="round" opacity="0.3"/>

  <ellipse cx="200" cy="360" rx="96" ry="14" fill="#4A3728" opacity="0.12"/>
</svg>
